PathFileType	4	(X/Y/Z)	Walk6.trc
DataRate	CameraRate	NumFrames	NumMarkers	Units	OrigDataRate	OrigDataStartFrame	OrigNumFrames
200.000000	200.000000	6	60	mm	200.000000	511	789
Frame#	Times		RCAR		LToe		LTB1		LMT5		LMT1		LTB4		LTB3		LLFC		RWRR		RWRU		RACR1		RFA1		LUA1		LFA1		STRN		LFHD		LACR1		LElbow		LTH2		LCAR		C7		LPSI		RTB2		LASI		LWRU		RPSI		RLFC		CLAV		LWRR		RToe		RTB3		RMT1		RMT5		LTH1		RMFC		RTB1		LMFC		LTH4		LTH3		RCAL		RTB4		RLMAL		LBHD		RTH2		LTB2		RMMAL		RBHD		RBack		RElbow		RTH4		RASI		RTH3		LCAL		RUA1		LMMAL		RTH1		T10		LElbowM		LLMAL		RElbowM
			X1	Y1	Z1	X2	Y2	Z2	X3	Y3	Z3	X4	Y4	Z4	X5	Y5	Z5	X6	Y6	Z6	X7	Y7	Z7	X8	Y8	Z8	X9	Y9	Z9	X10	Y10	Z10	X11	Y11	Z11	X12	Y12	Z12	X13	Y13	Z13	X14	Y14	Z14	X15	Y15	Z15	X16	Y16	Z16	X17	Y17	Z17	X18	Y18	Z18	X19	Y19	Z19	X20	Y20	Z20	X21	Y21	Z21	X22	Y22	Z22	X23	Y23	Z23	X24	Y24	Z24	X25	Y25	Z25	X26	Y26	Z26	X27	Y27	Z27	X28	Y28	Z28	X29	Y29	Z29	X30	Y30	Z30	X31	Y31	Z31	X32	Y32	Z32	X33	Y33	Z33	X34	Y34	Z34	X35	Y35	Z35	X36	Y36	Z36	X37	Y37	Z37	X38	Y38	Z38	X39	Y39	Z39	X40	Y40	Z40	X41	Y41	Z41	X42	Y42	Z42	X43	Y43	Z43	X44	Y44	Z44	X45	Y45	Z45	X46	Y46	Z46	X47	Y47	Z47	X48	Y48	Z48	X49	Y49	Z49	X50	Y50	Z50	X51	Y51	Z51	X52	Y52	Z52	X53	Y53	Z53	X54	Y54	Z54	X55	Y55	Z55	X56	Y56	Z56	X57	Y57	Z57	X58	Y58	Z58	X59	Y59	Z59	X60	Y60	Z60

511	2.555	-35.479	858.5	329.41	-24.423	30.35	-84.773	-156.85	359.64	-83.641	-129.72	26.308	-157.66	-80.179	46.268	-67.346	-173.29	276.45	-75.283	-186.55	191.87	-68.56	-181.41	506.17	-192.52	-23.752	899.18	266.57	-95.124	895.39	320.12	-76.894	1502.5	155.33	-76.147	1038.2	291.29	-70.97	1362.8	-303.83	16.128	1083	-359.38	45.457	1302.5	-41.907	76.997	1712.5	-56.993	-72.078	1543.1	-216.28	-91.882	1194.6	-360.59	-74.403	735.63	-225.28	95.943	936.98	-368.64	-178.62	1569.8	-24.167	-255.71	1088.6	-100.26	63.239	311.24	145.03	-34.382	1040.1	-203.86	17.081	950.45	-370.45	-256.6	1075	7.8005	50.574	546.75	167.89	-14.245	1477.2	-43.428	86.458	972.73	-311.57	183.29	69.88	94.512	46.217	229.44	79.342	135.33	79.813	77.859	89.82	58.722	160.9	-125.56	822.33	-251.32	44.304	528.82	22.534	85.445	397.51	88.154	-172.83	507.75	-50.459	-132.41	737.08	-235.86	-139.26	651.98	-217.96	-84.166	81.303	76.57	65.367	312.85	83.317	-24.947	112.68	123.09	-88.234	1706.7	-87.432	11.068	769.37	180.46	-154.28	267.41	-135.74	13.506	137.62	32.605	-100.93	1699.9	54.463	-243.85	1447.8	87.86	-159.37	1168.3	272.76	-41.609	739.14	177.35	-38.533	1049.8	117.13	-0.78243	665.13	173	-307.34	45.255	-78.659	-107.78	1324.4	228.05	-217.76	96.63	-23.49	-82.711	818.41	179.66	-234.1	1215.1	-49.088	-126.75	1160.2	-278.75	-242.75	68.575	-121.05	-183.41	1140.6	182.53
512	2.56	-32.65	857.39	329.82	-24.307	30.3	-84.768	-154.82	359.16	-83.411	-129.69	26.312	-157.66	-80.109	46.204	-67.269	-171.79	276.08	-75.099	-185.6	191.58	-68.407	-178.45	505.9	-192.23	-20.631	897.97	266.99	-92.133	894.52	320.4	-71.927	1501.7	155.55	-72.499	1037.3	291.51	-65.498	1362.3	-303.52	22.1	1082.6	-358.85	50.429	1301.8	-41.853	82.085	1711.7	-56.56	-66.973	1542.5	-216.01	-86.123	1193.9	-360.27	-70.403	734.91	-224.64	102.25	936.75	-367.94	-173.59	1569.2	-23.951	-250.73	1087.8	-99.796	74.774	310.57	145.28	-29.512	1039.4	-203.98	23.355	950.06	-369.9	-251.46	1074.2	8.1797	56.234	545.77	168.1	-9.2359	1476.5	-43.206	92.566	972.49	-310.88	200.9	72.192	94.39	59.804	228.33	79.65	152.69	80.889	77.91	107.88	58.734	161.04	-121.08	821.8	-251.03	50.478	528.02	22.571	94.661	397.35	88.344	-169.83	507.55	-50.181	-128.27	736.65	-235.6	-135.51	651.53	-217.64	-66.779	76.93	77.108	76.789	312.22	83.542	-8.274	109.76	123.5	-83.132	1706	-87.045	15.828	768.48	181.12	-152.86	266.94	-135.5	29.386	135.68	32.99	-95.864	1699.1	54.83	-238.94	1447.2	88.005	-155.2	1167.6	272.72	-36.787	738.2	177.41	-33.386	1049.1	117.46	4.1555	664.29	173.12	-307.27	45.428	-78.59	-103.2	1323.6	228.13	-217.5	96.522	-23.369	-77.887	817.38	179.69	-229.09	1214.4	-48.737	-121.06	1159.5	-278.46	-242.59	68.646	-120.98	-179.12	1139.9	182.43
513	2.565	-29.802	856.23	330.23	-24.195	30.254	-84.769	-152.79	358.67	-83.169	-129.67	26.32	-157.66	-80.038	46.138	-67.194	-170.29	275.7	-74.905	-184.65	191.29	-68.242	-175.5	505.62	-191.92	-17.485	896.73	267.42	-89.116	893.63	320.68	-66.952	1500.9	155.79	-68.812	1036.3	291.74	-60.031	1361.7	-303.18	28.045	1082.2	-358.29	55.415	1301	-41.785	87.178	1711	-56.116	-61.874	1541.9	-215.73	-80.376	1193.3	-359.92	-66.402	734.16	-223.98	108.5	936.48	-367.22	-168.56	1568.5	-23.721	-245.72	1087	-99.315	86.224	309.98	145.55	-24.618	1038.8	-204.06	29.582	949.63	-369.34	-246.3	1073.3	8.5731	61.781	544.71	168.29	-4.2208	1475.7	-42.976	98.635	972.19	-310.17	218.32	74.673	94.292	73.29	227.34	79.999	169.89	82.136	77.996	125.84	58.96	161.23	-116.59	821.25	-250.74	56.584	527.14	22.554	103.76	397.2	88.521	-166.84	507.34	-49.889	-124.12	736.21	-235.35	-131.76	651.07	-217.31	-49.409	72.787	77.772	88.104	311.65	83.787	8.3553	107.06	124.02	-78.024	1705.3	-86.648	20.484	767.47	181.76	-151.44	266.46	-135.25	45.176	133.9	33.451	-90.789	1698.3	55.206	-234.01	1446.5	88.171	-150.98	1166.9	272.69	-32.074	737.17	177.42	-28.208	1048.4	117.77	8.9556	663.33	173.18	-307.21	45.605	-78.519	-98.604	1322.8	228.23	-217.24	96.421	-23.249	-73.151	816.26	179.68	-224.04	1213.7	-48.361	-115.38	1158.9	-278.13	-242.43	68.724	-120.92	-174.79	1139.3	182.34
514	2.57	-26.934	855.05	330.64	-24.087	30.212	-84.773	-150.77	358.18	-82.915	-129.65	26.333	-157.66	-79.966	46.074	-67.12	-168.8	275.33	-74.702	-183.72	191	-68.066	-172.56	505.33	-191.6	-14.314	895.46	267.86	-86.07	892.71	320.95	-61.969	1500	156.04	-65.089	1035.2	291.97	-54.568	1361	-302.82	33.961	1081.7	-357.71	60.418	1300.3	-41.7	92.276	1710.2	-55.663	-56.782	1541.3	-215.43	-74.644	1192.6	-359.53	-62.404	733.39	-223.29	114.7	936.14	-366.48	-163.53	1567.7	-23.477	-240.68	1086.2	-98.821	97.577	309.46	145.84	-19.698	1038.1	-204.11	35.76	949.14	-368.74	-241.1	1072.3	8.9802	67.218	543.57	168.45	0.80128	1475	-42.735	104.67	971.83	-309.45	235.54	77.32	94.227	86.668	226.46	80.389	186.92	83.551	78.124	143.67	59.404	161.49	-112.08	820.68	-250.44	62.618	526.18	22.481	112.75	397.04	88.684	-163.87	507.11	-49.584	-119.96	735.76	-235.11	-128.02	650.59	-216.98	-32.078	68.881	78.563	99.306	311.13	84.053	24.923	104.57	124.63	-72.913	1704.6	-86.241	25.04	766.34	182.4	-150.02	265.98	-134.99	60.863	132.28	33.988	-85.71	1697.5	55.592	-229.07	1445.8	88.356	-146.72	1166.2	272.65	-27.466	736.04	177.37	-22.994	1047.6	118.08	13.621	662.26	173.2	-307.15	45.788	-78.446	-93.977	1322	228.35	-216.99	96.326	-23.129	-68.5	815.05	179.64	-218.98	1213	-47.963	-109.7	1158.1	-277.76	-242.27	68.811	-120.85	-170.4	1138.7	182.25
515	2.575	-24.042	853.83	331.05	-23.982	30.173	-84.782	-148.76	357.68	-82.65	-129.63	26.348	-157.65	-79.893	46.01	-67.049	-167.32	274.94	-74.488	-182.79	190.71	-67.881	-169.62	505.04	-191.27	-11.115	894.15	268.29	-82.993	891.77	321.22	-56.979	1499.2	156.31	-61.328	1034.2	292.2	-49.113	1360.4	-302.44	39.848	1081.1	-357.11	65.438	1299.5	-41.599	97.377	1709.4	-55.2	-51.697	1540.6	-215.12	-68.927	1191.9	-359.1	-58.409	732.59	-222.6	120.86	935.74	-365.72	-158.5	1567	-23.216	-235.6	1085.3	-98.314	108.83	309.04	146.14	-14.751	1037.4	-204.1	41.891	948.61	-368.13	-235.87	1071.4	9.4011	72.549	542.36	168.58	5.8312	1474.2	-42.484	110.66	971.41	-308.7	252.53	80.129	94.204	99.927	225.7	80.823	203.76	85.132	78.302	161.35	60.068	161.82	-107.58	820.1	-250.13	68.573	525.13	22.352	121.62	396.9	88.837	-160.9	506.86	-49.266	-115.8	735.3	-234.87	-124.28	650.1	-216.64	-14.807	65.216	79.482	110.39	310.67	84.342	41.41	102.31	125.35	-67.797	1703.9	-85.823	29.504	765.09	183.02	-148.61	265.49	-134.73	76.432	130.83	34.6	-80.627	1696.7	55.988	-224.11	1445.1	88.56	-142.41	1165.4	272.62	-22.959	734.82	177.29	-17.741	1046.9	118.38	18.158	661.07	173.15	-307.08	45.975	-78.373	-89.323	1321.2	228.48	-216.74	96.235	-23.011	-63.93	813.77	179.56	-213.88	1212.2	-47.541	-104.03	1157.4	-277.35	-242.11	68.905	-120.77	-165.97	1138	182.16
516	2.58	-21.123	852.57	331.45	-23.879	30.137	-84.792	-146.75	357.17	-82.374	-129.61	26.366	-157.65	-79.819	45.949	-66.98	-165.84	274.56	-74.267	-181.87	190.42	-67.687	-166.68	504.73	-190.93	-7.8884	892.82	268.73	-79.881	890.8	321.48	-51.979	1498.3	156.59	-57.531	1033.1	292.44	-43.667	1359.7	-302.04	45.707	1080.5	-356.48	70.479	1298.8	-41.479	102.48	1708.6	-54.726	-46.619	1539.9	-214.81	-63.224	1191.1	-358.64	-54.416	731.78	-221.91	126.96	935.28	-364.95	-153.47	1566.2	-22.939	-230.49	1084.5	-97.796	119.96	308.69	146.46	-9.773	1036.7	-204.05	47.976	948.03	-367.49	-230.61	1070.4	9.836	77.777	541.08	168.68	10.87	1473.5	-42.222	116.61	970.93	-307.94	269.3	83.096	94.23	113.06	225.05	81.299	220.4	86.875	78.537	178.86	60.953	162.23	-103.07	819.51	-249.83	74.445	524.01	22.167	130.38	396.75	88.979	-157.94	506.6	-48.937	-111.64	734.83	-234.64	-120.55	649.59	-216.3	2.3838	61.793	80.522	121.35	310.27	84.652	57.796	100.27	126.16	-62.679	1703.2	-85.395	33.882	763.74	183.63	-147.2	264.99	-134.46	91.868	129.54	35.285	-75.541	1695.9	56.396	-219.13	1444.3	88.783	-138.05	1164.6	272.6	-18.547	733.51	177.16	-12.442	1046.1	118.67	22.571	659.78	173.03	-307.02	46.168	-78.298	-84.641	1320.3	228.64	-216.49	96.15	-22.892	-59.435	812.42	179.45	-208.76	1211.4	-47.096	-98.364	1156.6	-276.9	-241.95	69.007	-120.7	-161.49	1137.3	182.09
